<svg xmlns="http://www.w3.org/2000/svg" viewBox="75 75 350 350">
  <style>
    @media (prefers-color-scheme: dark) {
    path { fill: white; }
    }
  </style>
  <path
    d="M250,80 a170,170 0 1,0 0,340 a170,170 0 1,0 0,-340 M250,95 a155,155 0 1,1 0,310 a155,155 0 1,1 0,-310 Z" />
  <path
    d="M 250 110 C 223.33333 123.33333 203.33333 156.66667 190 210 C 190 230 200 246.66667 220 260 C 246.66667 273.33333 270 273.33333 290 260 C 310 246.66667 316.66667 230 310 210 C 296.66667 156.66667 276.66667 123.33333 250 110 z M 230 152 A 22 28 0 0 1 250.02539 168.43164 A 22 28 0 0 1 270 152 A 22 28 0 0 1 292 180 A 22 28 0 0 1 270 208 A 22 28 0 0 1 250 191.48828 A 22 28 0 0 1 230 208 A 22 28 0 0 1 208 180 A 22 28 0 0 1 230 152 z " />
  <path
    d="M 232 190 A 7 7 0 1 0 218 190 A 7 7 0 1 0 232 190" />
  <path
    d="M 282 190 A 7 7 0 1 0 268 190 A 7 7 0 1 0 282 190" />
  <path
    d="m 251.62695,262.67773 -3.2539,14.64454 c 29.6411,6.58691 52.50119,14.00059 68.27343,21.88671 15.77224,7.88612 23.89316,16.12675 26.23829,23.16211 l 0.16796,0.50586 0.23829,0.47657 c 2.77431,5.54863 2.96984,9.14709 2.09375,11.77539 -0.8761,2.62829 -3.18965,5.38779 -8.73829,8.16211 -5.54863,2.77431 -9.14709,2.96984 -11.77539,2.09375 -2.62829,-0.8761 -5.38779,-3.18965 -8.16211,-8.73829 -5.77224,-11.54447 -5.77224,-21.74849 0,-33.29296 l -13.41796,-6.70704 c -7.5611,15.12219 -7.5611,31.58485 0,46.70704 3.89235,7.7847 9.46618,13.80448 16.83789,16.26171 7.3717,2.45724 15.4399,0.9861 23.22461,-2.90625 7.7847,-3.89235 13.80448,-9.46618 16.26171,-16.83789 2.45724,-7.3717 0.9861,-15.4399 -2.90625,-23.22461 l 0.40625,0.98243 c -4.32154,-12.96464 -16.20062,-23.05735 -33.76171,-31.83789 -17.5611,-8.78055 -41.36767,-16.36687 -71.72657,-23.11329 z" />
  <path
    d="m 251.06055,262.57617 -2.1211,14.84766 c 22.66512,3.23787 40.0389,8.90614 52.08594,16.43554 12.04704,7.52941 18.84739,16.55167 21.69922,27.95899 l 0.19922,0.79883 0.36719,0.73633 c 2.77431,5.54863 2.96984,9.14709 2.09375,11.77539 -0.8761,2.62829 -3.18965,5.38779 -8.73829,8.16211 -5.54863,2.77431 -9.14709,2.96984 -11.77539,2.09375 -2.62829,-0.8761 -5.38779,-3.18965 -8.16211,-8.73829 -5.77224,-11.54447 -5.77224,-21.74849 0,-33.29296 l -13.41796,-6.70704 c -7.5611,15.12219 -7.5611,31.58485 0,46.70704 3.89235,7.7847 9.46618,13.80448 16.83789,16.26171 7.3717,2.45724 15.4399,0.9861 23.22461,-2.90625 7.7847,-3.89235 13.80448,-9.46618 16.26171,-16.83789 2.36474,-7.09422 1.02935,-14.82889 -2.53906,-22.33984 -3.93242,-14.96263 -13.69431,-27.38609 -28.10156,-36.39063 -14.61962,-9.13726 -33.91251,-15.13566 -57.91406,-18.56445 z" />
  <path
    d="m 254.16016,263.75977 -8.32032,12.48046 c 18.87994,12.58663 30.93166,27.79106 37.04493,46.13086 l 0.16796,0.50586 0.23829,0.47657 c 2.77431,5.54863 2.96984,9.14709 2.09375,11.77539 -0.8761,2.62829 -3.18965,5.38779 -8.73829,8.16211 -5.54863,2.77431 -9.14709,2.96984 -11.77539,2.09375 -2.62829,-0.8761 -5.38779,-3.18965 -8.16211,-8.73829 -5.77224,-11.54447 -5.77224,-21.74849 0,-33.29296 l -13.41796,-6.70704 c -7.5611,15.12219 -7.5611,31.58485 0,46.70704 3.89235,7.7847 9.46618,13.80448 16.83789,16.26171 7.3717,2.45724 15.4399,0.9861 23.22461,-2.90625 7.7847,-3.89235 13.80448,-9.46618 16.26171,-16.83789 2.36103,-7.08308 1.03217,-14.80481 -2.52343,-22.30468 -7.22746,-21.63209 -21.83225,-39.74038 -42.93164,-53.80664 z" />
  <path
    d="m 245.83984,263.75977 c -21.09939,14.06626 -35.70418,32.17455 -42.93164,53.80664 -3.5556,7.49987 -4.88446,15.2216 -2.52343,22.30468 2.45723,7.37171 8.47701,12.94554 16.26171,16.83789 7.78471,3.89235 15.85291,5.36349 23.22461,2.90625 7.37171,-2.45723 12.94554,-8.47701 16.83789,-16.26171 7.5611,-15.12219 7.5611,-31.58485 0,-46.70704 l -13.41796,6.70704 c 5.77224,11.54447 5.77224,21.74849 0,33.29296 -2.77432,5.54864 -5.53382,7.86219 -8.16211,8.73829 -2.6283,0.87609 -6.22676,0.68056 -11.77539,-2.09375 -5.54864,-2.77432 -7.86219,-5.53382 -8.73829,-8.16211 -0.87609,-2.6283 -0.68056,-6.22676 2.09375,-11.77539 l 0.23829,-0.47657 0.16796,-0.50586 c 6.11327,-18.3398 18.16499,-33.54423 37.04493,-46.13086 z" />
  <path
    d="m 248.5293,262.64648 c -35.0305,7.0061 -60.89872,25.32088 -75.23828,54 C 169.62227,323.98397 167.5,330.83333 167.5,337.5 c 0,6.66667 2.53811,13.14358 7.19727,17.80273 5.1011,5.1011 13.27646,6.61163 20.17382,4.3125 6.89737,-2.29912 13.32304,-7.20389 20.43164,-14.3125 l 0.86133,-0.85937 0.54492,-1.08984 c 7.5611,-15.12219 7.5611,-31.58485 0,-46.70704 l -13.41796,6.70704 c 5.58408,11.16816 5.64385,21.1051 0.42382,32.1914 -5.75159,5.55819 -10.66362,8.86574 -13.58593,9.83985 -3.10264,1.03421 -3.26061,0.87806 -4.82618,-0.6875 C 183.29523,342.68976 182.5,340.83333 182.5,337.5 c 0,-3.33333 1.21106,-8.15064 4.20898,-14.14648 12.32711,-24.65421 33.12555,-39.67277 64.76172,-46 z" />
  <path
    d="m 248.37305,262.67773 c -30.3589,6.74642 -54.16547,14.33274 -71.72657,23.11329 -17.56109,8.78054 -29.44017,18.87325 -33.76171,31.83789 l 0.40625,-0.98243 c -3.89235,7.78471 -5.36349,15.85291 -2.90625,23.22461 2.45723,7.37171 8.47701,12.94554 16.26171,16.83789 7.78471,3.89235 15.85291,5.36349 23.22461,2.90625 7.37171,-2.45723 12.94554,-8.47701 16.83789,-16.26171 7.5611,-15.12219 7.5611,-31.58485 0,-46.70704 l -13.41796,6.70704 c 5.77224,11.54447 5.77224,21.74849 0,33.29296 -2.77432,5.54864 -5.53382,7.86219 -8.16211,8.73829 -2.6283,0.87609 -6.22676,0.68056 -11.77539,-2.09375 -5.54864,-2.77432 -7.86219,-5.53382 -8.73829,-8.16211 -0.87609,-2.6283 -0.68056,-6.22676 2.09375,-11.77539 l 0.23829,-0.47657 0.16796,-0.50586 c 2.34513,-7.03536 10.46605,-15.27599 26.23829,-23.16211 15.77224,-7.88612 38.63233,-15.2998 68.27343,-21.88671 z" />
</svg>